<svg height="100%" width="100%" id="bg-svg" viewBox="0 0 1440 400" xmlns="http://www.w3.org/2000/svg" class="transition duration-300 ease-in-out delay-150" transform="scale(.5, .5)"><defs><linearGradient id="gradient"><stop offset="5%" stop-color="#4a918e66"></stop><stop offset="95%" stop-color="#9cd8d766"></stop></linearGradient></defs><path d="M 0,400 C 0,400 0,100 0,100 C 145.5,104.14285714285714 291,108.28571428571429 395,98 C 499,87.71428571428571 561.5000000000001,63 684,66 C 806.4999999999999,69 989,99.71428571428571 1125,110 C 1261,120.28571428571429 1350.5,110.14285714285714 1440,100 C 1440,100 1440,400 1440,400 Z" stroke="none" stroke-width="0" fill="url(#gradient)" class="transition-all duration-300 ease-in-out delay-150"></path><defs><linearGradient id="gradient"><stop offset="5%" stop-color="#4a918e88"></stop><stop offset="95%" stop-color="#9cd8d788"></stop></linearGradient></defs><path d="M 0,400 C 0,400 0,200 0,200 C 155.53571428571428,206.67857142857144 311.07142857142856,213.35714285714286 421,220 C 530.9285714285714,226.64285714285714 595.25,233.24999999999997 702,225 C 808.75,216.75000000000003 957.9285714285713,193.64285714285717 1088,187 C 1218.0714285714287,180.35714285714283 1329.0357142857142,190.17857142857142 1440,200 C 1440,200 1440,400 1440,400 Z" stroke="none" stroke-width="0" fill="url(#gradient)" class="transition-all duration-300 ease-in-out delay-150"></path><defs><linearGradient id="gradient"><stop offset="5%" stop-color="#4a918eff"></stop><stop offset="95%" stop-color="#9cd8d7ff"></stop></linearGradient></defs><path d="M 0,400 C 0,400 0,300 0,300 C 95.39285714285714,309.9642857142857 190.78571428571428,319.92857142857144 303,327 C 415.2142857142857,334.07142857142856 544.2500000000001,338.25000000000006 675,337 C 805.7499999999999,335.74999999999994 938.2142857142856,329.07142857142856 1066,322 C 1193.7857142857144,314.92857142857144 1316.8928571428573,307.4642857142857 1440,300 C 1440,300 1440,400 1440,400 Z" stroke="none" stroke-width="0" fill="url(#gradient)" class="transition-all duration-300 ease-in-out delay-150"></path></svg>
