<svg xmlns="http://www.w3.org/2000/svg" xmlns:xlink="http://www.w3.org/1999/xlink" width="408" height="446" viewBox="0 0 408 446">
    <defs>
        <linearGradient id="a" x1="16.677%" x2="85.087%" y1="10.909%" y2="86.169%">
            <stop offset="0%" stop-color="#2A506F"/>
            <stop offset="100%" stop-color="#0C9"/>
        </linearGradient>
        <linearGradient id="b" x1="87.687%" x2="12.708%" y1="84.345%" y2="19.819%">
            <stop offset="0%" stop-color="#0C9"/>
            <stop offset="100%" stop-color="#2A506F"/>
        </linearGradient>
        <linearGradient id="c" x1="16.677%" x2="85.087%" y1="10.909%" y2="86.169%">
            <stop offset="0%" stop-color="#2C5572"/>
            <stop offset="100%" stop-color="#0C9"/>
        </linearGradient>
        <circle id="e" cx="64.5" cy="64.5" r="64.5"/>
        <filter id="d" width="218.6%" height="218.6%" x="-59.3%" y="-59.3%" filterUnits="objectBoundingBox">
            <feOffset in="SourceAlpha" result="shadowOffsetOuter1"/>
            <feGaussianBlur in="shadowOffsetOuter1" result="shadowBlurOuter1" stdDeviation="25.5"/>
            <feColorMatrix in="shadowBlurOuter1" values="0 0 0 0 0 0 0 0 0 0 0 0 0 0 0 0 0 0 0.1 0"/>
        </filter>
        <path id="f" d="M.545.63H27.86v45.592H.545z"/>
        <path id="h" d="M.014.238H53.69v18.358H.014z"/>
        <circle id="k" cx="329.5" cy="274.5" r="8.5"/>
        <filter id="j" width="517.6%" height="517.6%" x="-208.8%" y="-208.8%" filterUnits="objectBoundingBox">
            <feMorphology in="SourceAlpha" operator="dilate" radius="1" result="shadowSpreadOuter1"/>
            <feOffset in="shadowSpreadOuter1" result="shadowOffsetOuter1"/>
            <feGaussianBlur in="shadowOffsetOuter1" result="shadowBlurOuter1" stdDeviation="11.5"/>
            <feComposite in="shadowBlurOuter1" in2="SourceAlpha" operator="out" result="shadowBlurOuter1"/>
            <feColorMatrix in="shadowBlurOuter1" values="0 0 0 0 0 0 0 0 0 0 0 0 0 0 0 0 0 0 0.1 0"/>
        </filter>
        <circle id="m" cx="222" cy="49" r="10"/>
        <filter id="l" width="455%" height="455%" x="-177.5%" y="-177.5%" filterUnits="objectBoundingBox">
            <feMorphology in="SourceAlpha" operator="dilate" radius="1" result="shadowSpreadOuter1"/>
            <feOffset in="shadowSpreadOuter1" result="shadowOffsetOuter1"/>
            <feGaussianBlur in="shadowOffsetOuter1" result="shadowBlurOuter1" stdDeviation="11.5"/>
            <feComposite in="shadowBlurOuter1" in2="SourceAlpha" operator="out" result="shadowBlurOuter1"/>
            <feColorMatrix in="shadowBlurOuter1" values="0 0 0 0 0 0 0 0 0 0 0 0 0 0 0 0 0 0 0.1 0"/>
        </filter>
        <circle id="o" cx="42.5" cy="220.5" r="8.5"/>
        <filter id="n" width="517.6%" height="517.6%" x="-208.8%" y="-208.8%" filterUnits="objectBoundingBox">
            <feMorphology in="SourceAlpha" operator="dilate" radius="1" result="shadowSpreadOuter1"/>
            <feOffset in="shadowSpreadOuter1" result="shadowOffsetOuter1"/>
            <feGaussianBlur in="shadowOffsetOuter1" result="shadowBlurOuter1" stdDeviation="11.5"/>
            <feComposite in="shadowBlurOuter1" in2="SourceAlpha" operator="out" result="shadowBlurOuter1"/>
            <feColorMatrix in="shadowBlurOuter1" values="0 0 0 0 0 0 0 0 0 0 0 0 0 0 0 0 0 0 0.1 0"/>
        </filter>
        <circle id="q" cx="5.5" cy="5.5" r="5.5"/>
        <filter id="p" width="745.5%" height="745.5%" x="-322.7%" y="-322.7%" filterUnits="objectBoundingBox">
            <feMorphology in="SourceAlpha" operator="dilate" radius="1" result="shadowSpreadOuter1"/>
            <feOffset in="shadowSpreadOuter1" result="shadowOffsetOuter1"/>
            <feGaussianBlur in="shadowOffsetOuter1" result="shadowBlurOuter1" stdDeviation="11.5"/>
            <feComposite in="shadowBlurOuter1" in2="SourceAlpha" operator="out" result="shadowBlurOuter1"/>
            <feColorMatrix in="shadowBlurOuter1" values="0 0 0 0 0 0 0 0 0 0 0 0 0 0 0 0 0 0 0.1 0"/>
        </filter>
        <circle id="s" cx="32.5" cy="308.5" r="5.5"/>
        <filter id="r" width="745.5%" height="745.5%" x="-322.7%" y="-322.7%" filterUnits="objectBoundingBox">
            <feMorphology in="SourceAlpha" operator="dilate" radius="1" result="shadowSpreadOuter1"/>
            <feOffset in="shadowSpreadOuter1" result="shadowOffsetOuter1"/>
            <feGaussianBlur in="shadowOffsetOuter1" result="shadowBlurOuter1" stdDeviation="11.5"/>
            <feComposite in="shadowBlurOuter1" in2="SourceAlpha" operator="out" result="shadowBlurOuter1"/>
            <feColorMatrix in="shadowBlurOuter1" values="0 0 0 0 0 0 0 0 0 0 0 0 0 0 0 0 0 0 0.1 0"/>
        </filter>
        <circle id="u" cx="19.5" cy="113.5" r="5.5"/>
        <filter id="t" width="745.5%" height="745.5%" x="-322.7%" y="-322.7%" filterUnits="objectBoundingBox">
            <feMorphology in="SourceAlpha" operator="dilate" radius="1" result="shadowSpreadOuter1"/>
            <feOffset in="shadowSpreadOuter1" result="shadowOffsetOuter1"/>
            <feGaussianBlur in="shadowOffsetOuter1" result="shadowBlurOuter1" stdDeviation="11.5"/>
            <feComposite in="shadowBlurOuter1" in2="SourceAlpha" operator="out" result="shadowBlurOuter1"/>
            <feColorMatrix in="shadowBlurOuter1" values="0 0 0 0 0 0 0 0 0 0 0 0 0 0 0 0 0 0 0.1 0"/>
        </filter>
        <circle id="w" cx="5.5" cy="5.5" r="5.5"/>
        <filter id="v" width="745.5%" height="745.5%" x="-322.7%" y="-322.7%" filterUnits="objectBoundingBox">
            <feMorphology in="SourceAlpha" operator="dilate" radius="1" result="shadowSpreadOuter1"/>
            <feOffset in="shadowSpreadOuter1" result="shadowOffsetOuter1"/>
            <feGaussianBlur in="shadowOffsetOuter1" result="shadowBlurOuter1" stdDeviation="11.5"/>
            <feComposite in="shadowBlurOuter1" in2="SourceAlpha" operator="out" result="shadowBlurOuter1"/>
            <feColorMatrix in="shadowBlurOuter1" values="0 0 0 0 0 0 0 0 0 0 0 0 0 0 0 0 0 0 0.1 0"/>
        </filter>
        <circle id="y" cx="5.5" cy="5.5" r="5.5"/>
        <filter id="x" width="745.5%" height="745.5%" x="-322.7%" y="-322.7%" filterUnits="objectBoundingBox">
            <feMorphology in="SourceAlpha" operator="dilate" radius="1" result="shadowSpreadOuter1"/>
            <feOffset in="shadowSpreadOuter1" result="shadowOffsetOuter1"/>
            <feGaussianBlur in="shadowOffsetOuter1" result="shadowBlurOuter1" stdDeviation="11.5"/>
            <feComposite in="shadowBlurOuter1" in2="SourceAlpha" operator="out" result="shadowBlurOuter1"/>
            <feColorMatrix in="shadowBlurOuter1" values="0 0 0 0 0 0 0 0 0 0 0 0 0 0 0 0 0 0 0.1 0"/>
        </filter>
        <circle id="A" cx="328.5" cy="343.5" r="5.5"/>
        <filter id="z" width="745.5%" height="745.5%" x="-322.7%" y="-322.7%" filterUnits="objectBoundingBox">
            <feMorphology in="SourceAlpha" operator="dilate" radius="1" result="shadowSpreadOuter1"/>
            <feOffset in="shadowSpreadOuter1" result="shadowOffsetOuter1"/>
            <feGaussianBlur in="shadowOffsetOuter1" result="shadowBlurOuter1" stdDeviation="11.5"/>
            <feComposite in="shadowBlurOuter1" in2="SourceAlpha" operator="out" result="shadowBlurOuter1"/>
            <feColorMatrix in="shadowBlurOuter1" values="0 0 0 0 0 0 0 0 0 0 0 0 0 0 0 0 0 0 0.1 0"/>
        </filter>
        <circle id="C" cx="164.5" cy="5.5" r="5.5"/>
        <filter id="B" width="745.5%" height="745.5%" x="-322.7%" y="-322.7%" filterUnits="objectBoundingBox">
            <feMorphology in="SourceAlpha" operator="dilate" radius="1" result="shadowSpreadOuter1"/>
            <feOffset in="shadowSpreadOuter1" result="shadowOffsetOuter1"/>
            <feGaussianBlur in="shadowOffsetOuter1" result="shadowBlurOuter1" stdDeviation="11.5"/>
            <feComposite in="shadowBlurOuter1" in2="SourceAlpha" operator="out" result="shadowBlurOuter1"/>
            <feColorMatrix in="shadowBlurOuter1" values="0 0 0 0 0 0 0 0 0 0 0 0 0 0 0 0 0 0 0.1 0"/>
        </filter>
        <circle id="E" cx="266.5" cy="130.5" r="5.5"/>
        <filter id="D" width="745.5%" height="745.5%" x="-322.7%" y="-322.7%" filterUnits="objectBoundingBox">
            <feMorphology in="SourceAlpha" operator="dilate" radius="1" result="shadowSpreadOuter1"/>
            <feOffset in="shadowSpreadOuter1" result="shadowOffsetOuter1"/>
            <feGaussianBlur in="shadowOffsetOuter1" result="shadowBlurOuter1" stdDeviation="11.5"/>
            <feComposite in="shadowBlurOuter1" in2="SourceAlpha" operator="out" result="shadowBlurOuter1"/>
            <feColorMatrix in="shadowBlurOuter1" values="0 0 0 0 0 0 0 0 0 0 0 0 0 0 0 0 0 0 0.1 0"/>
        </filter>
        <circle id="G" cx="206.5" cy="394.5" r="5.5"/>
        <filter id="F" width="745.5%" height="745.5%" x="-322.7%" y="-322.7%" filterUnits="objectBoundingBox">
            <feMorphology in="SourceAlpha" operator="dilate" radius="1" result="shadowSpreadOuter1"/>
            <feOffset in="shadowSpreadOuter1" result="shadowOffsetOuter1"/>
            <feGaussianBlur in="shadowOffsetOuter1" result="shadowBlurOuter1" stdDeviation="11.5"/>
            <feComposite in="shadowBlurOuter1" in2="SourceAlpha" operator="out" result="shadowBlurOuter1"/>
            <feColorMatrix in="shadowBlurOuter1" values="0 0 0 0 0 0 0 0 0 0 0 0 0 0 0 0 0 0 0.1 0"/>
        </filter>
        <circle id="I" cx="370.5" cy="115.5" r="5.5"/>
        <filter id="H" width="745.5%" height="745.5%" x="-322.7%" y="-322.7%" filterUnits="objectBoundingBox">
            <feMorphology in="SourceAlpha" operator="dilate" radius="1" result="shadowSpreadOuter1"/>
            <feOffset in="shadowSpreadOuter1" result="shadowOffsetOuter1"/>
            <feGaussianBlur in="shadowOffsetOuter1" result="shadowBlurOuter1" stdDeviation="11.5"/>
            <feComposite in="shadowBlurOuter1" in2="SourceAlpha" operator="out" result="shadowBlurOuter1"/>
            <feColorMatrix in="shadowBlurOuter1" values="0 0 0 0 0 0 0 0 0 0 0 0 0 0 0 0 0 0 0.1 0"/>
        </filter>
    </defs>
    <g fill="none" fill-rule="evenodd" transform="translate(9 23)">
        <path fill-rule="nonzero" stroke="url(#a)" stroke-dasharray="6" stroke-width=".5" d="M195.5 300c54.952 0 99.5-44.772 99.5-100s-44.548-100-99.5-100S96 144.772 96 200s44.548 100 99.5 100z"/>
        <circle cx="194.5" cy="199.5" r="154.5" fill-rule="nonzero" stroke="url(#b)" stroke-width="20"/>
        <path fill-rule="nonzero" stroke="url(#c)" stroke-dasharray="3" stroke-width=".5" d="M195 395c107.696 0 195-87.304 195-195S302.696 5 195 5 0 92.304 0 200s87.304 195 195 195z"/>
        <g fill-rule="nonzero" transform="translate(131 136)">
            <use fill="#000" filter="url(#d)" xlink:href="#e"/>
            <use fill="#FFF" xlink:href="#e"/>
        </g>
        <g transform="matrix(-1 0 0 1 194.554 186.54)">
            <mask id="g" fill="#fff">
                <use xlink:href="#f"/>
            </mask>
            <path fill="#0C9" d="M27.335.63l-6.042 3.473a6.9 6.9 0 0 1 .32 2.046v17.406a7.188 7.188 0 0 1-3.612 6.22L2.766 38.5c-.697.4-1.45.653-2.22.794v6.928a8.726 8.726 0 0 0 3.06-1.043l19.786-11.334a8.89 8.89 0 0 0 4.468-7.691V3.55c0-.995-.182-1.971-.525-2.92" mask="url(#g)"/>
        </g>
        <path fill="#0C9" d="M198.978 225.036l15.172-8.72a7.185 7.185 0 0 0 3.604-6.215v-17.418c0-.686-.112-1.352-.303-1.993l6.047-3.474c.327.935.502 1.895.502 2.865v22.622a8.886 8.886 0 0 1-4.457 7.685l-19.704 11.326c-.934.536-1.96.879-3.053 1.045v-6.931a7 7 0 0 0 2.192-.792"/>
        <path fill="#00A375" d="M194.009 207.493v18.341a6.98 6.98 0 0 1-2.22-.793l-15.235-8.727a7.187 7.187 0 0 1-3.613-6.22V192.69a6.9 6.9 0 0 1 .32-2.048l16.56 9.518c3.404 2.398 4.14 4.668 4.188 7.333M195.398 201.728c-.901-1.464-2.243-2.728-4.174-3.938l-16.666-9.58a7.039 7.039 0 0 1 1.995-1.74l15.235-8.727a7.25 7.25 0 0 1 7.19.005l15.173 8.72a7.033 7.033 0 0 1 2.02 1.78l-16.59 9.534c-1.94 1.217-3.283 2.482-4.183 3.946"/>
        <g transform="matrix(-1 0 0 1 222.215 169.651)">
            <mask id="i" fill="#fff">
                <use xlink:href="#h"/>
            </mask>
            <path fill="#0C9" d="M8.065 16.816l15.172-8.72a7.253 7.253 0 0 1 7.19-.003l15.236 8.726a7.022 7.022 0 0 1 1.995 1.739l6.033-3.468a8.722 8.722 0 0 0-2.637-2.342L31.268 1.415a8.968 8.968 0 0 0-8.891.005L2.673 12.744a8.832 8.832 0 0 0-2.66 2.387l6.03 3.465a7.05 7.05 0 0 1 2.022-1.78" mask="url(#i)"/>
        </g>
        <path fill="#00A375" d="M201 200.142l16.451-9.452c.191.64.303 1.307.303 1.992v17.42a7.186 7.186 0 0 1-3.604 6.214l-15.172 8.72a6.986 6.986 0 0 1-2.192.791v-18.34c.049-2.66.783-4.93 4.215-7.345"/>
        <g fill-rule="nonzero" transform="matrix(-1 0 0 1 659 0)">
            <use fill="#000" filter="url(#j)" xlink:href="#k"/>
            <use fill="#28CDFB" stroke="#FFF" stroke-width="2" xlink:href="#k"/>
        </g>
        <g fill-rule="nonzero" transform="matrix(-1 0 0 1 444 0)">
            <use fill="#000" filter="url(#l)" xlink:href="#m"/>
            <use fill="#EC8B00" stroke="#FFF" stroke-width="2" xlink:href="#m"/>
        </g>
        <g fill-rule="nonzero" transform="matrix(-1 0 0 1 85 0)">
            <use fill="#000" filter="url(#n)" xlink:href="#o"/>
            <use fill="#FFC600" stroke="#FFF" stroke-width="2" xlink:href="#o"/>
        </g>
        <g fill-rule="nonzero" transform="matrix(-1 0 0 1 113 322)">
            <use fill="#000" filter="url(#p)" xlink:href="#q"/>
            <use fill="#00A275" stroke="#FFF" stroke-width="2" xlink:href="#q"/>
        </g>
        <g fill-rule="nonzero" transform="matrix(-1 0 0 1 65 0)">
            <use fill="#000" filter="url(#r)" xlink:href="#s"/>
            <use fill="#FFC600" stroke="#FFF" stroke-width="2" xlink:href="#s"/>
        </g>
        <g fill-rule="nonzero" transform="matrix(-1 0 0 1 39 0)">
            <use fill="#000" filter="url(#t)" xlink:href="#u"/>
            <use fill="#FFC600" stroke="#FFF" stroke-width="2" xlink:href="#u"/>
        </g>
        <g fill-rule="nonzero" transform="matrix(-1 0 0 1 120 134)">
            <use fill="#000" filter="url(#v)" xlink:href="#w"/>
            <use fill="#00A275" stroke="#FFF" stroke-width="2" xlink:href="#w"/>
        </g>
        <g fill-rule="nonzero">
            <g transform="matrix(-1 0 0 1 236 287)">
                <use fill="#000" filter="url(#x)" xlink:href="#y"/>
                <use fill="#00A275" stroke="#FFF" stroke-width="2" xlink:href="#y"/>
            </g>
        </g>
        <g fill-rule="nonzero" transform="matrix(-1 0 0 1 657 0)">
            <use fill="#000" filter="url(#z)" xlink:href="#A"/>
            <use fill="#28CDFB" stroke="#FFF" stroke-width="2" xlink:href="#A"/>
        </g>
        <g fill-rule="nonzero" transform="matrix(-1 0 0 1 329 0)">
            <use fill="#000" filter="url(#B)" xlink:href="#C"/>
            <use fill="#EC8B00" stroke="#FFF" stroke-width="2" xlink:href="#C"/>
        </g>
        <g fill-rule="nonzero" transform="matrix(-1 0 0 1 533 0)">
            <use fill="#000" filter="url(#D)" xlink:href="#E"/>
            <use fill="#EC8B00" stroke="#FFF" stroke-width="2" xlink:href="#E"/>
        </g>
        <g fill-rule="nonzero" transform="matrix(-1 0 0 1 413 0)">
            <use fill="#000" filter="url(#F)" xlink:href="#G"/>
            <use fill="#28CDFB" stroke="#FFF" stroke-width="2" xlink:href="#G"/>
        </g>
        <g fill-rule="nonzero" transform="matrix(-1 0 0 1 741 0)">
            <use fill="#000" filter="url(#H)" xlink:href="#I"/>
            <use fill="#EC8B00" stroke="#FFF" stroke-width="2" xlink:href="#I"/>
        </g>
    </g>
</svg>
