<svg xmlns="http://www.w3.org/2000/svg" class="J_bz" width="138" height="47" viewBox="0 0 138 47"><g fill="#33FAFA" transform="translate(-1 -7)"><path d="M5.01205598 4.17667773C5.4172072 4.34671747 5.83723352 4.47760396 6.26656509 4.56760155L6.50891344 4.61827686C6.85381362 4.70417403 7.19209552 4.81547154 7.52107421 4.95128604 7.1694315 5.83931052 6.87956386 6.61391883 6.6514713 7.27511097 6.44880596 7.84234052 6.2938142 8.42598652 6.18815827 9.01978949 6.10510234 9.46025766 6.12709928 9.91452143 6.25230931 10.3445869 6.39778769 10.7567296 6.64288628 11.1251467 6.96509858 11.4160077 7.39461335 11.809697 7.87405947 12.1432521 8.39067712 12.4077959 9.11562437 12.7887862 9.86039643 13.1295358 10.6217075 13.4285414L10.9709743 13.573328 11.5768452 13.8049866 11.8690888 13.9135766 12.1542045 14.0294058 12.5533665 14.1959104C12.8150485 14.3305518 13.1124024 14.3762329 13.4015857 14.3262184 13.5869022 14.2247326 13.7252434 14.0530055 13.7864919 13.8484226L13.8506429 13.681918C13.8792851 13.6094516 13.9007741 13.5342767 13.914794 13.4574988 13.9317929 13.3788019 13.9317929 13.2972977 13.914794 13.2186009 13.9017733 13.1523036 13.8559462 13.0975465 13.7936198 13.0738143 13.7444559 13.0615441 13.693098 13.0615441 13.643934 13.0738143L13.4015857 13.0738143 13.2233884 13.0738143 13.0166795 13.0738143 12.7386917 12.979703 12.4250644 12.8566344 11.2774737 12.3860779C10.5836921 12.0916785 9.99445298 11.8189971 9.50975627 11.5680336 9.02228238 11.3326985 8.59892504 10.9797702 8.27663083 10.5400488 7.99680412 10.1132551 7.86627078 9.60335478 7.90598041 9.09218279 7.97239731 8.35689342 8.15783819 7.63777686 8.45482815 6.96381978L8.45482815 6.89866581 8.56887443 6.64528926C8.6306495 6.51498132 8.69480054 6.3894996 8.76132754 6.2688441L8.82547857 6.15301482C8.863494 6.08062152 8.89438153 6.01064133 8.91814118 5.94307425L8.98229221 5.77656966 9.31017528 5.63178306 11.8263214 6.66700725 11.8833445 6.66700725 12.182716 6.85522983 12.6460291 7.16652102 12.8456101 7.28958963 13.0309353 7.39817958 13.0950863 7.39817958C13.1937405 7.43866326 13.2965473 7.46780206 13.4015857 7.48505153 13.5149749 7.50263594 13.6303354 7.50263594 13.7437245 7.48505153 13.8615298 7.46818294 13.973816 7.42355794 14.0716076 7.3547436 14.1677087 7.28924405 14.2422098 7.19592283 14.2854444 7.08688839 14.2933191 7.02422742 14.2808033 6.96066994 14.2498049 6.90590514 14.2117895 6.81903318 14.178526 6.76835787 14.1500144 6.75387921L14.1001192 6.69596457 14.0145845 6.61633194C13.9407845 6.54690981 13.8594841 6.48619553 13.7722361 6.43534869L13.6795735 6.37743405 13.515632 6.26160477 13.4657367 6.21816879 13.3588183 6.15301482 13.2875394 6.11681817 12.6460291 5.74761234 11.25609 4.93680738 10.5433007 4.54588356 9.83051144 4.1694384C9.69745745 4.0970451 9.64993816 3.9522585 9.68795359 3.73507861 9.7382162 3.48703399 9.81222272 3.24457097 9.90891826 3.01114561L10.0799877 2.59126447 10.2724408 2.13518668C10.412053 1.86080102 10.5288805 1.57506288 10.6217075 1.28094574 10.6772045 1.02581901 10.6772045.761464165 10.6217075.506337434 10.5725098.271775547 10.4041715.0815023083 10.1797782.00682366516L10.1441387.00682366516 10.0372203.00682366516C9.96374127-.000486191783 9.88973472-.000486191783 9.81625566.00682366516 9.74764386-.00227455505 9.67815857-.00227455505 9.60954677.00682366516 9.54942061.0192685994 9.50046283.0634669779 9.4812447.122652945L8.05566616 3.69164263 5.91729835 2.80120504C5.91729835 2.80120504 5.85314731 2.80120504 5.77474049 2.85188035L5.48249689 2.99666695 5.14748594 3.1776502C5.05957341 3.22818852 4.97610667 3.28631766 4.89800969 3.35139412L4.84811444 3.4672234C4.79618596 3.60119062 4.76725535 3.74320801 4.76257973 3.88710453 4.77885649 4.02670231 4.87798407 4.14176212 5.01205598 4.17667773zM16.8064239 7.49986756C16.9119202 7.51943433 17.0198749 7.51943433 17.1253712 7.49986756 17.2290667 7.5117522 17.3336893 7.5117522 17.4373849 7.49986756 17.5674565 7.05360284 17.7249481 6.61663024 17.9088722 6.19168985 18.0891468 5.77985613 18.2832886 5.38255771 18.4912977 4.99979461 18.6993069 4.6170315 18.9050048 4.22942329 19.1083915 3.83696998 19.3181583 3.42935161 19.5056684 3.00957425 19.6700161 2.57966585 19.7509112 2.37491265 19.7509112 2.1448655 19.6700161 1.9401123 19.5702304 1.70213647 19.3786546 1.51982695 19.1430597 1.43864418 18.9525192 1.34215925 18.7303737 1.34215925 18.5398332 1.43864418 18.3368596 1.55645567 18.1521617 1.70594068 17.9920759 1.88197107 17.7991335 2.09804572 17.6378987 2.34297631 17.5136549 2.60873646 17.3749821 2.88975242 17.243243 3.16107816 17.1184376 3.4227137 17.0063509 3.6590233 16.9068169 3.90164882 16.8202912 4.1494791L16.7786893 4.28029687 16.6261493 4.70182079C16.5984148 4.77934244 16.5706802 4.87382194 16.5429457 4.9852593L16.4805429 5.23962719C16.4129192 5.52860477 16.3665588 5.82259714 16.3418702 6.11901331 16.3142421 6.40334168 16.3306318 6.69048153 16.3904056 6.96932882 16.4355914 7.20802749 16.5917556 7.40718017 16.8064239 7.49986756zM1.18532718 10.2471036C1.33983262 9.87314032 1.46652578 9.48883093 1.56442559 9.09715142 1.66933332 8.68827953 1.76947252 8.26779197 1.86484319 7.83568873L2.15095519 6.55331781C2.24253691 6.13640315 2.35714844 5.72460909 2.49428959 5.31973275L2.49428959 5.2709469 3.10943039 3.69586088C3.25725493 3.3195129 3.40269519 2.92457983 3.5457512 2.51106167 3.6888072 2.09754351 3.8104048 1.71654925 3.910544 1.3680789 3.99761542 1.08165936 4.05512298.787485568 4.0822112.489933598 4.0822112.252973755 4.0392944.113585612 3.9534608.0717691695 3.78045395-.0239230565 3.56854924-.0239230565 3.39554239.0717691695 3.22378644.195062691 3.08009737.351678443 2.97352719.531750041 2.83975362.742416686 2.72488289.963935946 2.63019279 1.19384372L2.27970559 2.04411139C2.25109439 2.11845173 2.22248319 2.19511521 2.19387199 2.27410183L2.15810799 2.38561234 2.11519119 2.49712285 2.07227439 2.60863337C1.92921839 3.02215153 1.74562985 3.47516299 1.52150879 3.96766776 1.29738772 4.46017253 1.07326665 4.9526773.849145583 5.44518208.63245674 5.93251195.44146639 6.43031203.27692158 6.9366352.124292243 7.38771749.0329140046 7.85632466.0051151791 8.33051663-.0220687989 8.72295342.0594533325 9.11529917.24115758 9.46653.446865713 9.83083236.782931492 10.1086681 1.18532718 10.2471036L1.18532718 10.2471036zM18.4779309 9.72870013C18.1503957 9.7820404 17.869907 9.98188707 17.7242949 10.2656615 17.6780108 10.4054758 17.6780108 10.5554164 17.7242949 10.6952306 17.7568946 10.8498312 17.8181363 10.9977034 17.9051676 11.1319592L19.7892574 12.0984897 20.5428934 12.4851019 20.9046386 12.6855675 24.0699096 14.403844C24.3976556 14.5780965 24.7035718 14.7870533 24.9818091 15.0267192 25.2356915 15.2495735 25.425119 15.5305988 25.5319634 15.8429005 25.640867 16.1812925 25.6140199 16.5460076 25.4565998 16.8667069 25.3972998 17.0226194 25.2713762 17.147447 25.1099273 17.2103622 24.9355583 17.2765215 24.7533368 17.3222031 24.5673094 17.3463924L23.9568643 17.4394657C23.7762632 17.4657425 23.6039125 17.5292802 23.4519282 17.6256124 23.2452821 17.5842015 23.0364883 17.5531343 22.8264103 17.532539L22.5249559 17.4967416 21.8919017 17.3965088 21.5678383 17.3463924 20.9423204 17.2604786 20.7011569 17.2604786 20.4373844 17.2246812 20.324339 17.2246812 20.324339 17.2246812 20.1811481 17.1888838 20.0982482 17.1888838 19.9173756 17.1172889C19.8431286 17.0873256 19.7744271 17.0462323 19.7138938 16.9955777 19.6523559 16.9469401 19.5944385 16.8943113 19.5405576 16.838069 19.4924563 16.7933645 19.477568 16.7254746 19.5028758 16.6662413L19.7515756 14.7403398 19.676212 14.7403398 19.676212 14.7403398C19.5117092 14.6690306 19.3198241 14.685355 19.171276 14.7832967 19.008898 14.8876118 18.8725575 15.0244658 18.7718489 15.1842279 18.6603092 15.3575533 18.5645028 15.539584 18.4854672 15.7283488L18.2819855 16.2008748C18.1646121 16.4450808 18.1329097 16.7186442 18.1915492 16.9812587 18.2537856 17.2176905 18.3753124 17.4363077 18.5457581 17.6184529 18.7276123 17.81422 18.9413455 17.981007 19.1788123 18.1124573 19.4057422 18.241328 19.6425487 18.3538102 19.8872301 18.4489532 20.51402 18.6826052 21.1624659 18.8599803 21.8240745 18.9787551 22.5177571 19.1145851 23.227975 19.1579588 23.9342552 19.1076258 24.5888871 19.0647008 25.2262195 18.8889218 25.8032723 18.5921429 26.4064439 18.2438497 26.8481305 17.6912071 27.0392353 17.045694 27.2328402 16.6233674 27.2674377 16.1505837 27.137208 15.7068703 26.995602 15.2627614 26.7596255 14.8509601 26.4438629 14.4969173 26.089938 14.0952986 25.6849018 13.7369709 25.2380454 13.430154 24.7571745 13.1002681 24.2536279 12.8012897 23.7307735 12.5352183 23.2283495 12.2679309 22.7384861 12.0292814 22.2611834 11.8192698L21.6205928 11.5543689 21.100584 11.3467438 21.206093 11.0961618 21.6582746 11.1677567 22.2385743 11.2751489 23.3464191 11.4756145 24.5823821 11.6975586 25.0571727 11.7906319 25.501818 11.9195026C25.6600711 11.9725584 25.8210533 12.0179601 25.984145 12.0555328 26.1344868 12.0955685 26.2935211 12.0955685 26.4438629 12.0555328 26.6004195 11.9964202 26.7198361 11.8724223 26.7679264 11.719037 26.875117 11.5264294 26.875117 11.2959289 26.7679264 11.1033213 26.6596379 10.9259664 26.4927342 10.7875434 26.2931357 10.7095496 26.1072388 10.6379548 25.8560268 10.5568139 25.5394997 10.4661271L25.1400727 10.3515753C24.6376487 10.2131586 24.0849824 10.0890609 23.4820736 9.97928211 22.8791648 9.86950334 22.2586712 9.77165704 21.6205928 9.68574322 21.0393862 9.60274527 20.4523537 9.56205642 19.864621 9.56396336 19.396917 9.56293313 18.9309593 9.61826516 18.4779309 9.72870013zM61.0602216 32.5021623C60.4153887 32.3246124 59.7729984 32.1151946 59.1330505 31.8739088L58.4369241 31.6144128C58.1252835 31.4954032 57.8218295 31.3585658 57.5282959 31.2046823 57.2107646 31.0407901 56.8956757 30.8586877 56.5830295 30.658375 56.2871272 30.467845 56.0229411 30.2377492 55.7989713 29.9754908 55.5973049 29.7464538 55.4477213 29.4815914 55.3593125 29.1970028 55.2766438 28.9017661 55.3024408 28.589234 55.4325889 28.3092534 55.4325889 28.3092534 55.4838825 28.2682803 55.5644866 28.2341361 55.6278907 28.2033826 55.6981865 28.1870049 55.7696607 28.1863342L55.7696607 28.1863342 55.8795754 28.1863342 56.0554389 28.2204784 56.6050124 28.3433976 57.1472583 28.4799744C57.2547561 28.5118964 57.3651146 28.5347511 57.4770024 28.5482628L57.9459718 28.6165513 58.957187 28.7326416 60.1222829 28.8828761 60.5985799 28.9375068 61.1334981 28.9853087 61.2580681 28.9853087 61.4632422 28.9853087 61.6171228 28.9853087 62.1813516 28.8828761C62.3213758 28.8603283 62.4571369 28.8189219 62.5843722 28.7599569 62.7016537 28.7034957 62.800391 28.6185577 62.8701504 28.5141186 62.9653592 28.3663144 63.0462818 28.2109158 63.1119627 28.0497574 63.2941345 27.6565424 63.3599219 27.2250202 63.3024815 26.8000793 63.2416523 26.4096449 63.0944299 26.0352497 62.8701504 25.7006358 62.6375744 25.3531506 62.3367701 25.0496549 61.9835051 24.8060575 61.623342 24.5541169 61.2291452 24.3474752 60.8110816 24.1914618 60.2502838 23.9914246 59.6526985 23.8962864 59.0524464 23.9114792 58.3897656 23.9149372 57.7318698 24.0163542 57.1032924 24.2119483 56.473674 24.4056941 55.8857495 24.7016083 55.3666401 25.08604 54.8689569 25.4416436 54.4798948 25.912524 54.2381825 26.4518084 54.0445502 26.8916025 53.9020683 27.3494749 53.813179 27.8175768 53.7277591 28.319776 53.7277591 28.8313804 53.813179 29.3335797 53.8736902 29.7914306 54.027917 30.2342066 54.2674931 30.6378884 54.5231554 31.0614825 54.8729064 31.4293323 55.2933637 31.7168455L55.8942307 31.9421972 56.2972513 32.1060894 56.4950977 32.1880355 56.8688077 32.3314412 57.2791559 32.4816757 58.2097671 32.8299467 58.7739959 33.0348119C59.2234249 33.1941516 59.6630837 33.3421098 60.0929723 33.4786866 60.5228609 33.6152635 60.9869452 33.7359064 61.4852251 33.8406153 61.9737349 33.9498767 62.5550616 34.0545856 63.2292051 34.154742 63.323695 34.1658813 63.4183951 34.1356229 63.4856727 34.0727959 63.5722789 34.0027241 63.6486493 33.922369 63.7128298 33.8337864 63.777276 33.7461685 63.8313285 33.6522914 63.874038 33.5538039L63.9546421 33.3694252C63.1794902 33.080335 62.38673 32.8340697 61.5804846 32.6319103L61.0602216 32.5021623zM56.1433707 25.7416089C56.383802 25.6168644 56.6432581 25.5270551 56.9127736 25.475284 57.2258699 25.4139388 57.5455121 25.3864418 57.8653677 25.3933379 58.2062676 25.3978284 58.546496 25.4229202 58.8839106 25.4684552 59.2076014 25.5117118 59.5281678 25.5732852 59.8438323 25.6528339 60.1124228 25.7207088 60.3766461 25.8027879 60.6352181 25.8986722L60.8550475 25.9806183 61.155481 26.1035375 61.5145357 26.2674297 61.6391057 26.3220604 61.8222969 26.6088718 61.778331 26.7044756C61.6751743 26.9648831 61.4676609 27.1778543 61.1994469 27.2985848 60.9142728 27.4208939 60.604718 27.4860352 60.2908187 27.4897924 59.9108633 27.4967086 59.5315491 27.4576866 59.1623611 27.3737021 58.7520129 27.2872034 58.3416647 27.1802182 57.9313165 27.0527465 57.5209683 26.9252748 57.1228328 26.7886979 56.7369101 26.643016L55.659746 26.2401143C55.7555067 26.0253753 55.9293119 25.8488962 56.1506983 25.7416089L56.1433707 25.7416089zM54.8351614 23.7438527C54.9048572 23.7231532 54.9676472 23.6870623 55.0177676 23.6388927 55.0259271 23.6210368 55.0417114 23.6068608 55.0615931 23.5995328L55.0615931 23.5995328 55.1054186 23.5601728 55.1054186 23.4748929C55.1024129 23.4597053 55.1024129 23.4441606 55.1054186 23.4289729 55.1113287 23.3810127 55.1113287 23.3326133 55.1054186 23.284653 55.0868583 23.2259347 55.0624108 23.168848 55.0323761 23.1140932L54.9447251 22.9500933 54.8862911 22.8385734 54.3238638 22.4974537 53.9440427 22.2481739 53.7541322 22.116974 53.3816154 21.8808142 53.1551836 21.7430544 53.0237071 21.6577744 52.8849263 21.6052945C52.3167507 21.3918577 51.7158567 21.256941 51.102689 21.2051348 50.0501565 21.1243747 48.9900785 21.2200258 47.9764695 21.4872146 47.574871 21.5927398 47.1798726 21.7175595 46.7931808 21.8611343 46.4620548 21.9879608 46.1942323 22.0951074 45.9897132 22.182574 45.7851942 22.2700406 45.6585872 22.3072139 45.6098922 22.2940939 45.5621297 22.2764946 45.5231679 22.2438355 45.5003284 22.202254L45.4345901 22.0710541C45.4123284 22.021836 45.3828511 21.9755069 45.3469391 21.9332942 45.3084566 21.8839452 45.2553061 21.8453028 45.1935498 21.8217743 45.0277283 21.7506561 44.8413477 21.727726 44.6603395 21.7561744 44.4540049 21.8068701 44.2534644 21.8749592 44.0613909 21.9595342 44.0415091 21.9668622 44.0257248 21.9810382 44.0175654 21.9988941L43.9664357 22.1104141C43.9664357 22.1104141 43.9664357 22.156334 43.9664357 22.162894 43.9379786 22.2214535 43.9379786 22.2880143 43.9664357 22.3465739 44.0053917 22.4209205 44.0321739 22.4624671 44.0467824 22.4712137L42.870798 26.9188899C42.8606908 26.9599408 42.8606908 27.002479 42.870798 27.0435298 42.8885065 27.1082924 42.9296028 27.1659625 42.987666 27.2075297 42.9933958 27.2245534 43.0065761 27.2387582 43.0241873 27.2468897L43.0680128 27.2468897C43.1551396 27.2818345 43.2503019 27.2975782 43.3455743 27.2928096 43.4228947 27.2860783 43.4989674 27.2706509 43.5720061 27.2468897L43.6523529 27.2468897 43.8276549 27.2468897C43.9664888 27.245355 44.1038839 27.2722776 44.2293887 27.3256096L45.6902389 24.1243323C45.8704344 23.7509976 46.1546991 23.4256597 46.5156193 23.1796931 46.9123495 22.899769 47.356155 22.6783331 47.8303845 22.5236937 48.2999418 22.3631517 48.7912074 22.2594676 49.2912347 22.215374 49.7126744 22.1656442 50.1412558 22.2084121 50.5402617 22.3400139L54.6890763 23.8422526 54.8351614 23.7438527zM73.1571443 37.3834667L72.6726464 37.2534588C72.0266491 37.0755532 71.3830988 36.8657159 70.7419954 36.6239468L70.0446119 36.3639309C69.732401 36.2446989 69.428398 36.1075868 69.134343 35.9533796 68.8162383 35.7891591 68.5005805 35.6066919 68.1873697 35.4059779 67.8909332 35.2150662 67.62627 34.9845095 67.4018957 34.7217257 67.1998652 34.4922299 67.0500115 34.2268369 66.9614431 33.9416782 66.8786251 33.6458501 66.9044687 33.3326919 67.0348518 33.0521504 67.0348518 33.0521504 67.086238 33.0110953 67.1669876 32.9768827 67.2305062 32.9460675 67.300929 32.929657 67.3725322 32.928985L67.3725322 32.928985 67.4826454 32.928985 67.6588265 32.9631976 68.2093924 33.086363 68.7526174 33.2232135C68.8602989 33.2552352 68.9708602 33.2781364 69.0829569 33.2916387L69.5527731 33.3600639 70.5658143 33.4763868 71.733014 33.6269222 72.210171 33.6816624 72.7460552 33.7295601 72.8708501 33.7295601 73.2232122 33.7774577 73.5315291 33.7227175 73.7884599 33.6748199C73.9287369 33.652227 74.0647431 33.6107376 74.1922082 33.5516545 74.3097015 33.4950801 74.4086171 33.409972 74.4785024 33.3053237 74.5738832 33.1572234 74.6549518 33.0015135 74.7207514 32.8400322 74.9032521 32.4460296 74.9691583 32.0136429 74.9116143 31.5878508 74.8506752 31.1966342 74.7031869 30.821489 74.4785024 30.4862048 74.2455065 30.1380235 73.9441591 29.8339198 73.5902562 29.5898344 73.2294427 29.3373891 72.8345341 29.1303334 72.4157156 28.9740075 71.8539051 28.7735696 71.2552408 28.6782407 70.6539048 28.6934641 69.9900274 28.6969289 69.3309436 28.7985491 68.7012312 28.994535 68.0704021 29.2109149 67.4861705 29.5307046 66.9761248 29.938803 66.4667637 30.2916171 66.0666062 30.7637584 65.816266 31.3073074 65.6222841 31.7479825 65.4795449 32.2067721 65.3904951 32.6758117 65.3046838 33.1414918 65.2923185 33.616359 65.3537907 34.0853712 65.413919 34.5516673 65.5710081 35.0025624 65.816266 35.4128204 66.07239 35.8372631 66.4227725 36.2058498 66.843989 36.4939389L67.445941 36.7197421 67.8496893 36.8839626 68.047893 36.9660729 68.4222778 37.1097658 68.833367 37.2603013 69.7656586 37.6092699 70.3309062 37.8145455C70.7811467 37.9742044 71.2215994 38.122459 71.6522643 38.2593095 72.0829292 38.3961599 72.5478514 38.5170444 73.0470312 38.6219631 73.5364231 38.7314435 74.1187994 38.8363621 74.7941602 38.9367191 74.8888207 38.9478807 74.9836918 38.9175617 75.0510909 38.8546089 75.1378536 38.7843967 75.2143618 38.7038806 75.2786582 38.6151206 75.3432208 38.5273272 75.3973709 38.433262 75.4401575 38.3345772L75.5209072 38.1498291C74.749791 37.851389 73.9605066 37.5954928 73.1571443 37.3834667zM67.7248944 30.4862048C67.9657599 30.3612105 68.2256844 30.2712212 68.4956866 30.2193464 68.8093483 30.1578783 69.1295676 30.1303262 69.4500008 30.1372362 69.7915163 30.1417356 70.1323591 30.1668777 70.4703829 30.2125039 70.7946583 30.2558472 71.1158035 30.3175439 71.4320379 30.397252 71.7011134 30.4652629 71.9658139 30.5475064 72.2248528 30.6435828L72.4450791 30.725693 72.7460552 30.8488584 73.2011896 31.0541341 73.2011896 31.0541341 73.3847116 31.34152 73.3406663 31.4373153C73.2373233 31.6982445 73.0294352 31.9116423 72.7607369 32.0326147 72.4750479 32.1551688 72.1649341 32.2204406 71.850468 32.2242053 71.4698265 32.2311354 71.0898274 32.1920352 70.7199727 32.1078824 70.3088836 32.0212105 69.8977944 31.914011 69.4867052 31.7862839 69.075616 31.6585568 68.6767616 31.5217064 68.290142 31.3757326L67.2844417 30.9857089C67.3673038 30.7780362 67.5223587 30.6021931 67.7248944 30.4862048L67.7248944 30.4862048zM42.8467729 20.1673513L42.8467729 20.1673513 42.8949891 20.0190151C42.9205723 19.9264655 42.9389975 19.8319909 42.9500934 19.73647 42.9625614 19.6427222 42.9625614 19.5476726 42.9500934 19.4539249 42.9406186 19.3719548 42.8948935 19.2990136 42.8261089 19.2561433 42.0299372 18.7541398 41.2014715 18.3081071 40.3464184 17.9211177 39.4601587 17.5255545 38.6037471 17.1747277 37.7771837 16.8686371 37.6882513 16.749839 37.633388 16.6079611 37.618759 16.4589467 37.6113247 16.3154208 37.6113247 16.1715914 37.618759 16.0280654L38.1766893 14.7495488C38.3840087 14.288233 38.6139021 13.8379425 38.8654922 13.4003959 39.1067341 12.9658572 39.3856799 12.5545025 39.6989437 12.1713247 39.9893273 11.8099615 40.3333426 11.4976987 40.718372 11.2459895 41.0925269 11.0047896 41.517771 10.8594279 41.9582172 10.8221718 42.4854164 10.7918064 43.0120573 10.8911012 43.4942477 11.1117806 43.6969452 11.199265 43.894711 11.2983106 44.0866182 11.4084529 44.3327375 11.5421115 44.5637344 11.7031938 44.775421 11.8887796 44.9711281 12.0583472 45.1366073 12.2615065 45.2644711 12.489188 45.3760061 12.7107516 45.3760061 12.9739871 45.2644711 13.1955507L45.1680387 13.4498413 45.0922704 13.569923 44.9131816 13.8877863 44.8029732 14.0785042 44.5825562 14.4387492 44.53434 14.5164491 44.4172435 14.6859762 44.5550041 15.0109031C44.5604074 15.0292337 44.5728367 15.0445291 44.5894443 15.0532848L44.6583246 15.0532848C44.8000366 15.1220334 44.9643344 15.1220334 45.1060464 15.0532848 45.2585276 14.9754116 45.3961673 14.8701482 45.5124401 14.7424852 45.6348729 14.6117144 45.7455314 14.469865 45.8430655 14.3186675 45.9265237 14.1917015 45.9980217 14.056886 46.0565944 13.9160408 46.231813 13.5079131 46.298363 13.059436 46.2494592 12.6163333 46.1993864 12.2227377 46.0627808 11.845949 45.8499536 11.5144073 45.6295227 11.1749219 45.3519766 10.8783413 45.0302781 10.6385175 44.6751643 10.3729208 44.2886494 10.1545622 43.8799773 9.98866376 43.289192 9.72856437 42.6559558 9.58479032 42.0133214 9.5648461 41.4816398 9.55321098 40.9535435 9.65670896 40.4635149 9.86858209 39.9929727 10.0790547 39.5653364 10.3786026 39.2030056 10.7515356 38.8165442 11.1503093 38.4703829 11.5881255 38.1698013 12.0583067 37.8453109 12.5608755 37.5575242 13.0873756 37.3087977 13.6334957 37.0516446 14.1938768 36.8220436 14.7566125 36.6199948 15.3217027L36.5786666 15.4347207 35.944968 17.1017369C35.7566952 17.6150271 35.5638304 18.1683446 35.3663735 18.7616894 35.1184045 19.5057248 34.8888035 20.2756602 34.6775706 21.0714956 34.4663377 21.867331 34.294137 22.6019483 34.1609685 23.2753475 34.0488115 23.8398711 34.0025661 24.4160768 34.0232079 24.991809 34.05076 25.4627175 34.2022966 25.7570353 34.4778178 25.8747625 34.5642975 25.9092011 34.6544817 25.9329147 34.7464509 25.9453988 34.8536034 25.9639726 34.9630358 25.9639726 35.0701883 25.9453988 35.1779137 25.9254342 35.2794475 25.8794267 35.3663735 25.8111898 35.447408 25.7427935 35.5032888 25.6481151 35.5247982 25.542772L36.9575082 18.5780351 37.0470526 18.351999C37.1753931 18.2658231 37.3281132 18.2260482 37.4809984 18.2389809 37.666382 18.2454181 37.8508161 18.2690601 38.0320407 18.3096172 38.1870492 18.3409049 38.3391463 18.3858067 38.4866506 18.4438261L38.7828359 18.5709714 39.4165345 18.8111348 39.9882409 19.0371709 40.2706501 19.1501889 40.8561326 19.3832886 41.9306651 19.792979 42.619468 20.040206 42.8467729 20.1673513z" transform="rotate(-6 111.723 -564.107)"/><path d="M80.9763572,54.9494769 C58.4773456,59.1412638 38.5676578,54.8193559 21.2472939,41.9837534 C14.458281,36.8018535 9.64400449,31.0144399 6.80446442,24.6215125 L10.6637588,27.6202828 C10.8141945,27.7882524 11.0511391,27.8514332 11.2669594,27.7811251 C11.4827798,27.710817 11.6363281,27.5204247 11.6578543,27.2964348 C11.6793805,27.0724449 11.5647804,26.8575629 11.3661117,26.7493999 L5.85611719,22.4484932 C5.69735625,22.323667 5.48332533,22.2921446 5.29420134,22.3657346 C5.10507736,22.4393245 4.96940309,22.6069205 4.93800271,22.8057404 L4.01528454,29.7429389 C3.97387819,30.0549346 4.19541825,30.3403352 4.51010812,30.3803989 C4.824798,30.4204627 5.11347103,30.2000183 5.15487738,29.8880226 L5.77784568,25.1201282 C8.7235157,31.6748012 13.6534708,37.5919402 20.5677109,42.8715451 C38.1575145,55.9100591 58.3634383,60.3068151 81.1854823,56.0618131 C81.500326,56.0036182 81.7087489,55.7036439 81.651008,55.3918017 C81.593267,55.0799596 81.2912275,54.8743379 80.9763838,54.9325328 L80.9763572,54.9494769 Z" transform="rotate(-25 42.835 39.976)"/></g></svg>
