<svg xmlns="http://www.w3.org/2000/svg" xmlns:xlink="http://www.w3.org/1999/xlink" viewBox="0 0 191.29 50">
  <path fill="#9cd8d7" opacity="1"
    d="M147.45,241.58l.06.47c.31,2.7,1.25,10.95,10.76,10.95a9.91,9.91,0,0,0,7.77-3.35,9.64,9.64,0,0,0,2-7.86,22.18,22.18,0,0,0-1.52-4.89,17,17,0,0,1-1.58-7.1c0-2.62.82-8.71,8.38-8.71s8.39,6.09,8.39,8.71a17,17,0,0,1-1.58,7.1,22.18,22.18,0,0,0-1.52,4.89,9.6,9.6,0,0,0,2,7.86,9.91,9.91,0,0,0,7.77,3.35c9.51,0,10.45-8.25,10.76-11l0-.46c.27-2.4.49-2.4,1.42-2.4v-6.09c-4.38,0-6.89,2.63-7.47,7.82l-.05.45c-.45,3.91-1.2,5.54-4.71,5.54a3.91,3.91,0,0,1-3.12-1.18,3.6,3.6,0,0,1-.67-2.92,17.61,17.61,0,0,1,1.17-3.63,22.8,22.8,0,0,0,2-9.37c0-7.37-4.48-14.8-14.48-14.8s-14.47,7.43-14.47,14.8a22.8,22.8,0,0,0,2,9.37,17.61,17.61,0,0,1,1.17,3.63,3.6,3.6,0,0,1-.67,2.92,3.91,3.91,0,0,1-3.12,1.18c-3.51,0-4.27-1.63-4.71-5.54l-.05-.45c-.58-5.19-3.09-7.82-7.47-7.82v6.09C147,239.18,147.19,239.18,147.45,241.58Z"
    transform="translate(-144.35 -215)" />
  <rect fill="#9cd8d7" opacity="1" x="25.07" y="18.07" width="2.86" height="4.98" />
  <rect fill="#9cd8d7" opacity="1" x="30.05" y="18.07" width="2.86" height="4.98" />
  <path fill="#9cd8d7" opacity="1"
    d="M198.94,256a15.46,15.46,0,0,1-10.53,3.8,14.56,14.56,0,0,1-11.38-5,14.23,14.23,0,0,1-1.45-2.07l-.92-1.62H172l-.92,1.62a14.23,14.23,0,0,1-1.45,2.07,14.56,14.56,0,0,1-11.38,5,15.55,15.55,0,0,1-10.43-3.7l-3.49,3.79A20.67,20.67,0,0,0,158.27,265a19.68,19.68,0,0,0,15.07-6.56A19.65,19.65,0,0,0,188.41,265c3.18,0,9.24-.68,14.06-5.2Z"
    transform="translate(-144.35 -215)" />
</svg>
